<svg width="30" height="30" viewBox="0 0 30 30" fill="none" xmlns="http://www.w3.org/2000/svg">
<path fill-rule="evenodd" clip-rule="evenodd" d="M25.1437 4.79527C22.452 2.10349 18.8698 0.617188 15.0547 0.617188C7.19168 0.617188 0.801266 7.01445 0.794417 14.8706C0.794417 17.3843 1.45195 19.8364 2.69853 21.9939L0.677979 29.3843L8.23962 27.4049C10.3218 28.5418 12.6643 29.1377 15.0547 29.1377H15.0615C22.9177 29.1377 29.315 22.7405 29.3218 14.8843C29.3218 11.0692 27.8355 7.48705 25.1437 4.79527ZM15.0615 26.7268C12.9314 26.7268 10.8424 26.1514 9.02729 25.0761L8.59579 24.8227L4.10949 26.0007L5.30812 21.6309L5.02729 21.1857C3.84236 19.3021 3.21222 17.1172 3.21222 14.8775C3.21222 8.34321 8.53414 3.02815 15.0684 3.02815C18.2328 3.02815 21.2122 4.26102 23.4451 6.50075C25.6848 8.74047 26.9177 11.7199 26.9109 14.8843C26.904 21.4117 21.5889 26.7268 15.0615 26.7268ZM21.5615 17.8569C21.2054 17.6788 19.452 16.8158 19.13 16.6994C18.8013 16.5829 18.5684 16.5213 18.3287 16.8775C18.0889 17.2336 17.4109 18.035 17.1985 18.2747C16.993 18.5144 16.7807 18.5418 16.4246 18.3638C16.0684 18.1857 14.9177 17.809 13.5615 16.5966C12.4999 15.6514 11.7876 14.487 11.5821 14.1309C11.3766 13.7747 11.5615 13.5829 11.7396 13.4049C11.8972 13.2473 12.0958 12.987 12.2739 12.7816C12.452 12.5761 12.5136 12.4254 12.63 12.1857C12.7465 11.946 12.6917 11.7405 12.6026 11.5624C12.5136 11.3843 11.8013 9.63089 11.5067 8.91856C11.2191 8.22678 10.9246 8.31582 10.7054 8.30897C10.4999 8.29527 10.2602 8.29527 10.0204 8.29527C9.78072 8.29527 9.39716 8.38431 9.06839 8.74047C8.73962 9.09664 7.82181 9.95965 7.82181 11.7131C7.82181 13.4665 9.09579 15.1583 9.27387 15.398C9.45195 15.6377 11.7876 19.2336 15.3629 20.7747C16.2122 21.1446 16.8766 21.3638 17.3972 21.5281C18.2533 21.8021 19.0273 21.761 19.6437 21.672C20.3287 21.5692 21.7533 20.809 22.0478 19.9802C22.3424 19.1514 22.3424 18.4323 22.2533 18.2884C22.1506 18.124 21.9177 18.035 21.5615 17.8569Z" fill="white"/>
</svg>
